<svg xmlns="http://www.w3.org/2000/svg" viewBox="0 0 800 200" fill="none">
  <defs>
    <linearGradient id="nexus-gradient" x1="0%" y1="0%" x2="100%" y2="100%">
      <stop offset="0%" style="stop-color:#3b82f6"/>
      <stop offset="100%" style="stop-color:#8b5cf6"/>
    </linearGradient>
  </defs>
  <g transform="translate(20, 20) scale(0.3125)" stroke="url(#nexus-gradient)" stroke-width="4" fill="none" stroke-linecap="round" stroke-linejoin="round">
    <line x1="128" y1="384" x2="128" y2="128"/>
    <line x1="384" y1="128" x2="384" y2="384"/>
    <line x1="128" y1="128" x2="384" y2="384"/>
    <line x1="128" y1="256" x2="256" y2="192"/>
    <line x1="256" y1="320" x2="384" y2="256"/>
    <line x1="256" y1="192" x2="256" y2="320"/>
    <line x1="128" y1="192" x2="256" y2="256"/>
    <line x1="256" y1="256" x2="384" y2="192"/>
  </g>
  <g transform="translate(20, 20) scale(0.3125)" fill="url(#nexus-gradient)">
    <circle cx="128" cy="128" r="10"/>
    <circle cx="128" cy="256" r="7"/>
    <circle cx="128" cy="384" r="10"/>
    <circle cx="384" cy="128" r="10"/>
    <circle cx="384" cy="256" r="7"/>
    <circle cx="384" cy="384" r="10"/>
    <circle cx="256" cy="192" r="7"/>
    <circle cx="256" cy="256" r="8"/>
    <circle cx="256" cy="320" r="7"/>
    <circle cx="128" cy="192" r="6"/>
    <circle cx="384" cy="192" r="6"/>
  </g>
  <text x="200" y="130" font-family="Inter, -apple-system, sans-serif" font-weight="600" font-size="80" fill="#e8eaf0" letter-spacing="8">NEXUS</text>
</svg>
